<svg xmlns="http://www.w3.org/2000/svg" viewBox="0 0 289.02 294"><defs><style>.cls-1{isolation:isolate;}.cls-2{mix-blend-mode:lighten;}.cls-3{fill:#587767;}</style></defs><g class="cls-1"><g id="Camada_1" data-name="Camada 1"><g class="cls-2"><path class="cls-3" d="M247.06,144.69c14,0,28.05-.13,42.07.08,4.07.06,5.93-.84,5.24-5.28-.79-5.17-1-10.43-1.78-15.6C282.5,57.15,224,4.64,156.4,3.05,97,1.66,52,27.42,22.41,79.12,11.7,97.86,6.62,118.44,5.51,140c-.16,3.27.41,4.87,4.16,4.48s7.71-.05,11.55-.3c16.78-1.08,33-4.28,47.35-13.73C86.48,118.67,95.8,101.2,100.87,81c.93-3.73,1.47-7.55,2.25-11.32.17-.85.28-2,1.55-1.88,1,.09.86,1.09,1,1.78.61,2.86,1.14,5.74,1.81,8.59,4.17,17.74,11.07,34,25.77,45.77,13.31,10.71,29.07,15.12,45.54,17.61C201.43,145,224.25,144.82,247.06,144.69ZM149.89,297c28.09,0,55.08-7.52,78.63-23.18,40.64-27,62.59-65.14,65.84-113.92.19-2.8.42-4.9-3.78-4.86-23.73.22-47.46,0-71.18.2-18.35.19-36.62,1.43-54.56,5.73-28,6.69-46.61,23.37-54.76,51.2-1.68,5.75-2.87,11.65-4.33,17.46-.23.92.2,2.52-1.46,2.32-1-.12-1.05-1.36-1.24-2.26-1-4.66-1.77-9.39-3-14-6.56-24-19.64-42.69-43.21-52.63-14.29-6-29.41-7.67-44.78-7.69-6.74,0-6.74,0-6.35,6.67C10.11,237.61,73.53,297,149.89,297Z" transform="translate(-5.49 -3)"/></g></g></g></svg>